<svg version="1.1" id="Layer_1" xmlns="http://www.w3.org/2000/svg" xmlns:xlink="http://www.w3.org/1999/xlink" x="0px" y="0px"
	 width="100%" viewBox="0 0 1024 1024" enable-background="new 0 0 1024 1024" xml:space="preserve">
<path fill="#ffff" opacity="1.000000" stroke="none" 
	d="
M795.349731,574.000122 
	C795.349304,604.998840 795.244690,635.498291 795.433594,665.995789 
	C795.472351,672.256226 793.229858,676.228210 787.642273,679.127563 
	C720.363342,714.037537 653.886597,750.453979 587.028015,786.153992 
	C565.133850,797.844604 543.274719,809.604248 521.535889,821.579956 
	C515.967102,824.647766 511.100647,824.582581 505.574158,821.595947 
	C437.726440,784.929993 369.856628,748.304321 301.902496,711.835938 
	C281.063538,700.652527 259.976807,689.928772 238.945328,679.107666 
	C233.600037,676.357483 230.559189,672.761414 230.569077,666.273621 
	C230.722839,565.444702 230.711914,464.615570 230.783356,363.786530 
	C230.787231,358.296539 231.182816,352.806946 231.390869,347.316956 
	C231.581558,342.284851 234.274933,339.075287 238.620895,336.812561 
	C281.763367,314.350616 324.887085,291.852692 368.001862,269.337708 
	C413.481323,245.587830 458.959808,221.836060 504.397797,198.007065 
	C510.215088,194.956329 515.610413,194.987595 521.464478,198.047668 
	C590.111206,233.931137 658.807312,269.720001 727.499878,305.515717 
	C746.704834,315.523438 765.817627,325.720917 785.228088,335.314636 
	C792.172546,338.746948 795.149292,343.694000 795.187683,351.011353 
	C795.233948,359.844055 795.324707,368.676727 795.327026,377.509430 
	C795.344238,442.839630 795.344116,508.169861 795.349731,574.000122 
M295.726471,349.250916 
	C292.733795,350.804810 289.741150,352.358673 286.200195,354.197235 
	C288.538605,355.561096 290.075165,356.542542 291.684998,357.383728 
	C333.757690,379.368195 375.818176,401.376251 417.954529,423.238037 
	C421.318115,424.983154 422.608307,427.165619 422.132019,430.723145 
	C421.044525,438.845856 421.509430,447.023529 421.240936,455.175629 
	C421.140106,458.236328 420.394531,461.275848 419.810638,465.217896 
	C368.534546,438.125671 317.609161,412.161804 267.469696,384.942749 
	C265.894775,386.658752 266.376648,388.234985 266.376190,389.663422 
	C266.348846,474.650360 266.372864,559.637329 266.295685,644.624207 
	C266.291321,649.407288 268.257141,652.427429 272.334625,654.591187 
	C313.969971,676.684937 355.616119,698.758911 397.189056,720.969849 
	C434.649078,740.983276 472.042938,761.121094 509.391815,781.341064 
	C512.379211,782.958374 514.629700,783.177551 517.629822,781.489563 
	C532.435425,773.159424 547.255859,764.845154 562.255188,756.871643 
	C624.466492,723.800842 686.656921,690.687927 749.106079,658.071106 
	C757.052002,653.921021 759.682861,648.828735 759.673096,640.462585 
	C759.575623,556.975647 759.691833,473.488495 759.705627,390.001404 
	C759.705872,388.278931 760.355957,386.318970 758.321899,384.462646 
	C708.124451,411.520447 657.644531,438.316956 606.188110,464.823151 
	C605.227112,455.171417 604.573792,446.607025 604.627319,437.969849 
	C604.709351,424.724701 604.678833,424.844482 616.219604,418.830658 
	C655.509644,398.356995 694.755127,377.797668 733.999878,357.237335 
	C735.793884,356.297485 737.891052,355.631195 739.174927,353.458221 
	C737.607910,352.562042 736.345825,351.780426 735.032349,351.097565 
	C662.916626,313.604065 590.778442,276.153595 518.722961,238.544754 
	C514.501282,236.341232 511.253082,236.549667 507.148071,238.702225 
	C436.934692,275.519775 366.649719,312.200745 295.726471,349.250916 
z"/>
<path fill="#ffff" opacity="1.000000" stroke="none" 
	d="
M474.999023,477.390747 
	C469.667145,477.388184 464.833008,477.460388 460.002350,477.361908 
	C454.676697,477.253357 452.713104,475.317719 452.672516,470.152222 
	C452.612244,462.487183 452.732391,454.820312 452.631165,447.156128 
	C452.572601,442.719910 454.770599,440.885345 458.993378,440.639832 
	C468.641388,440.078918 478.289856,439.429077 487.955200,439.737610 
	C491.670837,439.856232 492.950287,438.487274 492.825409,434.792206 
	C492.583527,427.634064 492.612610,420.461487 492.740540,413.298645 
	C492.791626,410.438507 491.915405,408.826080 489.154327,407.600494 
	C467.792114,398.118347 455.056030,381.522949 451.990540,358.592072 
	C447.391449,324.189545 469.104828,295.010529 502.034058,288.859741 
	C536.472351,282.427094 568.293457,305.201263 574.088562,339.729462 
	C578.553162,366.329956 566.374023,393.359100 540.482117,406.165161 
	C535.731934,408.514557 533.827698,411.242706 534.218872,416.473602 
	C534.640076,422.105103 534.519897,427.815674 534.131897,433.457092 
	C533.809204,438.149231 535.173218,439.979492 540.164917,439.804291 
	C549.144653,439.489044 558.138977,439.785767 567.120789,440.565216 
	C571.483887,440.943848 573.434326,442.729645 573.372253,447.108276 
	C573.263794,454.772278 573.386963,462.439240 573.327332,470.104309 
	C573.286865,475.301300 571.362976,477.282501 566.034180,477.347443 
	C556.870178,477.459137 547.701294,477.521210 538.539978,477.333374 
	C534.671814,477.254059 533.137939,478.544708 533.310242,482.515747 
	C534.761658,515.959778 534.766235,549.438599 535.666931,582.891602 
	C535.942871,593.139038 535.334717,603.515381 537.273254,613.744629 
	C540.837769,632.553284 558.734070,643.935791 577.389954,638.984741 
	C601.466431,632.595276 619.279968,617.648315 632.919006,597.444397 
	C640.047241,586.885193 642.221619,589.140564 629.537598,581.174500 
	C618.437256,574.203003 618.369812,574.219849 628.487549,565.987244 
	C644.886414,552.643799 661.293640,539.310486 677.706665,525.984436 
	C678.869263,525.040588 680.066040,524.125488 681.320618,523.310608 
	C686.398987,520.012085 689.371704,521.342041 690.385864,527.191406 
	C693.843018,547.130981 693.651184,567.255310 693.269043,587.365051 
	C693.152954,593.474121 692.158997,599.591064 691.235291,605.653870 
	C690.064636,613.337219 686.577087,614.916748 679.861938,611.135254 
	C672.412415,606.940125 672.386902,606.923706 667.685791,614.210388 
	C645.077026,649.253784 614.344543,674.578735 576.273865,691.394348 
	C561.668152,697.845642 547.039673,704.379578 533.669006,713.302246 
	C529.222717,716.269531 525.043091,719.512329 521.190979,723.250305 
	C516.007568,728.280396 511.189056,728.295227 505.804230,723.446838 
	C492.850494,711.783813 477.386505,704.374390 461.742065,697.271606 
	C441.242798,687.964783 420.949066,678.308044 403.183319,664.170837 
	C384.483063,649.290039 368.858856,631.658020 356.465179,611.247192 
	C353.988556,607.168518 352.028717,607.041565 348.282471,609.554626 
	C338.346252,616.219971 336.307220,615.432007 334.078125,603.666077 
	C331.297943,588.991394 332.425751,574.110657 333.111481,559.343384 
	C333.595123,548.927979 335.206329,538.551880 336.596069,528.196045 
	C337.594910,520.753052 340.949799,519.480347 346.888824,524.262268 
	C360.510712,535.230164 373.985626,546.380432 387.569153,557.396240 
	C392.355164,561.277527 397.340881,564.912354 402.130859,568.788940 
	C406.644684,572.442017 406.516876,574.777893 401.613861,578.051331 
	C397.876953,580.546204 393.966248,582.779297 390.163879,585.178040 
	C388.276245,586.368896 386.400330,587.611206 387.994293,590.340149 
	C402.054321,614.411804 420.967926,632.658630 448.864716,639.282593 
	C464.951935,643.102539 480.355865,635.158875 487.008057,620.671387 
	C489.833679,614.517761 490.462769,607.857117 490.609528,601.207947 
	C491.076202,580.063171 490.792603,558.883179 491.929230,537.777649 
	C492.907410,519.614380 492.095978,501.470337 492.828949,483.336365 
	C493.009552,478.868011 491.773102,476.854706 486.987274,477.317596 
	C483.190796,477.684845 479.330353,477.390778 474.999023,477.390747 
M489.180573,341.770477 
	C487.306183,346.885956 486.918549,351.973450 488.501923,357.333649 
	C492.318329,370.253204 506.792908,378.658630 519.523010,375.099915 
	C533.715759,371.132324 541.580017,357.742828 537.848755,343.898895 
	C535.075073,333.607819 525.246399,325.441895 514.390259,324.408966 
	C504.854767,323.501709 494.475433,330.416473 489.180573,341.770477 
z"/>
</svg>